<svg height="512pt" viewBox="-18 0 512 512.32266" width="512pt" xmlns="http://www.w3.org/2000/svg"><path d="m302.351562 466.609375c-4.160156.003906-7.800781-2.800781-8.855468-6.824219-1.054688-4.023437.738281-8.253906 4.367187-10.292968l31.917969-17.945313v-85.945313l31.863281 19.117188c2.800781 1.753906 6.332031 1.859375 9.234375.273438 2.898438-1.585938 4.71875-4.613282 4.757813-7.917969.039062-3.304688-1.710938-6.375-4.574219-8.023438l-23.515625-14.097656 26.734375 3.582031c.402344.050782.808594.074219 1.214844.074219 4.808594-.011719 8.789062-3.742187 9.105468-8.539063.316407-4.796874-3.132812-9.023437-7.898437-9.664062l-45.714844-6.128906c-.40625 0-.8125.027344-1.214843.085937v-47.617187c0-3.464844 1.957031-6.628906 5.054687-8.179688 3.09375-1.546875 6.800781-1.214844 9.574219.863282l49.441406 37.046874c5.828125 4.363282 13.144531 6.226563 20.347656 5.191407 7.203125-1.039063 13.695313-4.894531 18.054688-10.722657l.128906-.171874c8.972656-12.074219 6.589844-29.113282-5.351562-38.261719l-77.65625-59.054688-48.722657 68.175781c-1.84375 2.800782-5.066406 4.367188-8.40625 4.085938-3.339843-.28125-6.253906-2.367188-7.601562-5.433594-1.347657-3.066406-.910157-6.625 1.140625-9.273437l47.132812-65.957031c-4.054687-1.183594-8.25-1.796876-12.472656-1.828126h-11.375c-7.507812-.027343-14.238281-4.644531-16.96875-11.644531-2.726562-6.996093-.898438-14.949219 4.609375-20.054687 22.058594-19.707032 32.351563-49.425782 27.207031-78.554688l35.523438-8.878906c4.863281-1.253906 7.800781-6.199219 6.582031-11.074219-1.222656-4.875-6.144531-7.847656-11.027344-6.664062l-20.964843 5.167969 19.941406-16.816407c3.863281-3.253906 4.351562-9.027343 1.097656-12.890625-3.257812-3.863281-9.03125-4.351562-12.890625-1.097656l-28.207031 23.773438c-16.808594-30.085938-49.816406-47.386719-84.121094-44.09375-34.304688 3.292968-63.417969 26.554687-74.199219 59.289062-10.78125 32.730469-1.191406 68.742188 24.441407 91.777344 5.527343 4.976562 7.382812 12.863281 4.652343 19.785156-2.65625 7.171875-9.5 11.933594-17.152343 11.929688h-11.519532c-1.289062 0-2.550781.203124-3.832031.3125.046875-1.25-.167969-2.496094-.621094-3.660157l-14.445312-36.570312c-1.917969-4.589844-7.160157-6.804688-11.789063-4.976563s-6.949218 7.023438-5.214844 11.6875l6.976563 17.65625-21.816406-10.910156c-4.519531-2.253906-10.011719-.421875-12.269531 4.097656-2.257813 4.519532-.421876 10.011719 4.097656 12.269532l34.59375 17.296874c-1.023438.640626-2.101563 1.199219-3.070313 1.929688l-13.652343 10.222656 80.53125 26.84375c3.105468 1.03125 5.421874 3.640625 6.078124 6.84375s-.445312 6.515625-2.890624 8.6875c-2.445313 2.171875-5.863282 2.871094-8.964844 1.839844l-92.535156-30.882812 17.773437-13.394532-59.574219-19.832031c-.160156-13.46875-10.007812-24.863281-23.308594-26.96875-13.304687-2.109375-26.191406 5.675781-30.507812 18.4375-4.320312 12.757813 1.1875 26.769531 13.039062 33.175781 11.851563 6.402344 26.589844 3.332032 34.898438-7.273437l47.542969 15.882812-48.988281 36.699219c-12.117188 9.085938-14.574219 26.28125-5.484376 38.398438 9.089844 12.117187 26.28125 14.574218 38.398438 5.484374l51.292969-38.398437c2.769531-2.078125 6.476562-2.410156 9.574219-.863281 3.097656 1.546875 5.054687 4.714844 5.054687 8.175781v140.710937l-23.34375-11.675781c-4.519531-2.257812-10.011719-.421875-12.269531 4.097657-2.257813 4.515624-.421875 10.011718 4.097656 12.269531l27.425781 13.710937c1.273438.617188 2.667969.929688 4.078125.914063v.167969c-.5-.042969-1.003906-.042969-1.507812 0l-27.429688 4.570312c-4.703125.765625-8.03125 5.019531-7.640625 9.769531.390625 4.753907 4.363281 8.40625 9.132813 8.398438.507812 0 1.015625-.042969 1.515625-.128907l25.914062-4.316406v50.15625c0 10.101563 8.183594 18.289063 18.285157 18.289063h18.285156c10.097656 0 18.285156-8.1875 18.285156-18.289063v-73.140625c0-20.199219 16.375-36.570312 36.570312-36.570312 20.199219 0 36.574219 16.371093 36.574219 36.570312v73.140625c0 10.101563 8.183594 18.289063 18.285157 18.289063h18.285156c10.097656 0 18.285156-8.1875 18.285156-18.289063v-41.496094l-22.949219 12.898438c-1.367187.769531-2.910156 1.171875-4.480469 1.171875zm-52.175781-414.109375c-3.464843-3.585938-3.417969-9.289062.109375-12.816406s9.230469-3.574219 12.816406-.109375l11.824219 11.820312 11.820313-11.820312c2.296875-2.378907 5.695312-3.332031 8.890625-2.496094 3.199219.839844 5.695312 3.335937 6.53125 6.53125.835937 3.195313-.117188 6.597656-2.492188 8.890625l-11.824219 11.824219 11.824219 11.820312c2.375 2.296875 3.328125 5.695313 2.492188 8.890625-.835938 3.199219-3.332031 5.695313-6.53125 6.53125-3.195313.835938-6.59375-.117187-8.890625-2.492187l-11.820313-11.824219-11.824219 11.824219c-3.585937 3.464843-9.289062 3.414062-12.816406-.113281-3.527344-3.527344-3.574218-9.230469-.109375-12.816407l11.820313-11.820312zm-73.144531 36.574219c-3.570312-3.570313-3.570312-9.359375 0-12.929688l11.820312-11.820312-11.820312-11.824219c-3.464844-3.585938-3.414062-9.289062.113281-12.816406 3.523438-3.527344 9.226563-3.574219 12.816407-.109375l11.820312 11.820312 11.820312-11.820312c2.296876-2.378907 5.695313-3.332031 8.894532-2.496094 3.195312.839844 5.691406 3.335937 6.527344 6.53125.835937 3.195313-.117188 6.597656-2.492188 8.890625l-11.820312 11.824219 11.820312 11.820312c2.375 2.296875 3.328125 5.695313 2.492188 8.890625-.835938 3.199219-3.332032 5.695313-6.527344 6.53125-3.199219.835938-6.597656-.117187-8.894532-2.492187l-11.820312-11.824219-11.820312 11.824219c-3.570313 3.566406-9.359376 3.566406-12.929688 0zm107.035156 57.535156c0 5.046875-4.09375 9.140625-9.140625 9.140625-5.050781 0-9.144531-4.09375-9.144531-9.140625v-9.144531h-18.285156v9.144531c0 5.046875-4.09375 9.140625-9.144532 9.140625-5.046874 0-9.140624-4.09375-9.140624-9.140625v-9.144531h-18.285157v9.144531c0 5.046875-4.09375 9.140625-9.144531 9.140625s-9.144531-4.09375-9.144531-9.140625v-9.144531c-5.046875 0-9.140625-4.09375-9.140625-9.140625 0-5.050781 4.09375-9.144531 9.140625-9.144531v-9.144532c0-5.046875 4.09375-9.140625 9.144531-9.140625s9.144531 4.09375 9.144531 9.140625v9.144532h18.285157v-9.144532c0-5.046875 4.09375-9.140625 9.140624-9.140625 5.050782 0 9.144532 4.09375 9.144532 9.140625v9.144532h18.285156v-9.144532c0-5.046875 4.09375-9.140625 9.144531-9.140625 5.046875 0 9.140625 4.09375 9.140625 9.140625v9.144532c5.050782 0 9.144532 4.09375 9.144532 9.144531 0 5.046875-4.09375 9.140625-9.144532 9.140625zm0 0"/><path d="m448.636719 347.75c-8.128907-.109375-15.875 3.441406-21.101563 9.667969-5.222656 6.226562-7.371094 14.476562-5.851562 22.460937l-91.902344 51.710938v20.9375l100.917969-56.765625c4.949219 4.386719 11.324219 6.820312 17.9375 6.847656 15.148437 0 27.429687-12.28125 27.429687-27.429687 0-15.148438-12.28125-27.429688-27.429687-27.429688zm0 0"/><path d="m357.210938 128.324219c.003906 5.636719 1.761718 11.136719 5.027343 15.734375l-29.257812 40.949218c5.480469 1.46875 10.609375 4.015626 15.085937 7.496094l1.28125.914063 27.765625-38.847657c2.441407.746094 4.972657 1.144532 7.523438 1.179688 15.148437 0 27.429687-12.277344 27.429687-27.425781 0-15.148438-12.28125-27.429688-27.429687-27.429688-15.148438 0-27.425781 12.28125-27.425781 27.429688zm0 0"/></svg>