<svg id="Capa_1" enable-background="new 0 0 512 512" height="512" viewBox="0 0 512 512" width="512" xmlns="http://www.w3.org/2000/svg"><g><path d="m433.747 301.534c-6.183 0-12.306.985-18.14 2.878v-98.172c0-4.142-3.357-7.5-7.5-7.5h-101.4c.037-.617.06-1.237.06-1.86v-9.994c9.522-3.153 16.413-12.134 16.413-22.7 0-5.841-2.108-11.196-5.599-15.353 4.689-5.11 8.771-10.728 12.156-16.801 2.017-3.618.72-8.186-2.898-10.203-3.618-2.016-8.187-.719-10.203 2.898-3.299 5.917-7.39 11.319-12.168 16.125-1.675-.373-3.413-.576-5.198-.576h-39.651v-34.424c13.934-3.381 24.314-15.954 24.314-30.913 0-4.142-3.357-7.5-7.5-7.5s-7.5 3.358-7.5 7.5c0 9.271-7.543 16.814-16.814 16.814s-16.814-7.543-16.814-16.814c0-4.142-3.358-7.5-7.5-7.5s-7.5 3.358-7.5 7.5c0 14.959 10.381 27.532 24.314 30.913v34.424h-39.651c-1.789 0-3.53.204-5.207.578-13.692-13.787-21.473-32.51-21.473-52.024 0-40.71 33.12-73.83 73.83-73.83s73.831 33.12 73.831 73.83c0 3.339-.229 6.736-.683 10.098-.554 4.105 2.326 7.881 6.431 8.435 4.101.553 7.882-2.326 8.435-6.431.542-4.024.817-8.096.817-12.102 0-48.981-39.85-88.83-88.831-88.83s-88.83 39.849-88.83 88.83c0 22.282 8.427 43.707 23.363 60.011-3.487 4.156-5.593 9.509-5.593 15.346 0 10.564 6.89 19.545 16.41 22.698v9.995c0 .624.024 1.243.06 1.86h-93.63c-4.142 0-7.5 3.358-7.5 7.5v98.17c-5.833-1.891-11.958-2.876-18.144-2.876-32.367 0-58.7 26.333-58.7 58.7s26.333 58.7 58.7 58.7c9.252 0 18.168-2.126 26.257-6.191 6.833 19.719 17.858 37.913 32.605 53.399 2.857 3 7.604 3.116 10.604.259 3-2.856 3.115-7.604.259-10.603-23.589-24.772-36.581-57.252-36.581-91.458v-41.784c6.242-1.445 11.883-4.74 16.833-9.869 22-22.799 24.242-78.336 24.287-98.947h206.978c.044 20.611 2.287 76.149 24.287 98.947 4.947 5.127 10.586 8.421 16.825 9.867v41.785c0 73.149-59.511 132.66-132.659 132.66h-23.88c-26.885 0-52.765-7.994-74.841-23.118-3.418-2.341-8.085-1.468-10.426 1.949s-1.468 8.085 1.949 10.426c24.581 16.842 53.393 25.744 83.316 25.744h23.88c64.48 0 119.431-41.549 139.509-99.277 8.109 4.079 17.037 6.212 26.29 6.212 32.367 0 58.7-26.333 58.7-58.7s-26.332-58.701-58.699-58.701zm-228.78-146.258h94.303c4.913 0 8.91 3.997 8.91 8.91s-3.997 8.91-8.91 8.91h-94.303c-4.913 0-8.91-3.997-8.91-8.91s3.997-8.91 8.91-8.91zm7.5 41.604v-8.78h79.3v8.78c0 .628-.046 1.247-.117 1.86h-79.065c-.072-.613-.118-1.232-.118-1.86zm-134.214 207.055c-24.096 0-43.7-19.604-43.7-43.7s19.604-43.7 43.7-43.7c6.283 0 12.474 1.374 18.144 3.959v26.514c-4.44-2.303-9.545-3.775-15.242-4.347-9.428-.946-17.316.951-17.647 1.032-4.012.984-6.459 5.025-5.489 9.042.97 4.016 5.021 6.489 9.039 5.532.865-.205 20.597-4.711 29.365 8.234.154 10.71 1.452 21.257 3.836 31.493-6.646 3.896-14.163 5.941-22.006 5.941zm39.183-101.664c-1.901 1.97-3.907 3.442-6.039 4.458v-92.989h26.141c-.014 24.044-3.475 71.301-20.102 88.531zm277.145.005c-16.607-17.201-20.081-64.479-20.104-88.536h26.131v92.985c-2.128-1.015-4.13-2.484-6.027-4.449zm39.166 101.659c-7.83 0-15.349-2.047-22.011-5.947 2.371-10.134 3.687-20.668 3.844-31.478 8.751-12.939 28.451-8.461 29.367-8.244 4.015.969 8.063-1.486 9.05-5.502.987-4.023-1.474-8.084-5.497-9.071-.33-.082-8.218-1.979-17.646-1.032-5.699.572-10.806 2.045-15.246 4.349v-26.513c5.671-2.587 11.861-3.962 18.14-3.962 24.097 0 43.7 19.604 43.7 43.7s-19.605 43.7-43.701 43.7z"/><path d="m183.76 308.877c-9.333 0-16.925 10.408-16.925 23.201s7.592 23.201 16.925 23.201c9.332 0 16.924-10.408 16.924-23.201s-7.592-23.201-16.924-23.201z"/><path d="m328.25 308.877c-9.332 0-16.925 10.408-16.925 23.201s7.593 23.201 16.925 23.201 16.924-10.408 16.924-23.201-7.592-23.201-16.924-23.201z"/><path d="m210.868 287.412c2.929-2.929 2.929-7.678 0-10.606-14.395-14.396-37.818-14.395-52.212 0-2.929 2.929-2.929 7.678 0 10.606 2.929 2.929 7.678 2.929 10.606 0 8.547-8.546 22.453-8.547 31 0 1.464 1.464 3.384 2.197 5.303 2.197s3.838-.733 5.303-2.197z"/><path d="m354.815 287.412c2.929-2.929 2.929-7.678 0-10.606-6.974-6.973-16.245-10.813-26.106-10.813-9.862 0-19.134 3.84-26.106 10.813-2.929 2.929-2.929 7.678.001 10.607 1.464 1.464 3.384 2.196 5.303 2.196s3.839-.732 5.304-2.197c4.14-4.14 9.644-6.42 15.499-6.42 5.854 0 11.359 2.28 15.499 6.42 2.928 2.928 7.676 2.928 10.606 0z"/><path d="m256.004 404.393c16.958 0 32.166-11.33 36.982-27.552 1.18-3.971-1.084-8.146-5.055-9.325-3.968-1.179-8.146 1.085-9.324 5.055-2.941 9.904-12.236 16.822-22.604 16.822-10.355 0-19.651-6.921-22.605-16.83-1.185-3.97-5.36-6.229-9.331-5.044-3.969 1.184-6.228 5.361-5.044 9.331 4.837 16.216 20.044 27.543 36.981 27.543z"/><g><path d="m412.57 49.855c4.136 8.145 12.471 12.923 21.134 12.923 3.072 0 6.188-.602 9.17-1.867l24.016-10.191c6.006-2.549 10.733-7.526 12.97-13.655s1.825-12.981-1.129-18.8l-2.705-5.327c-2.954-5.818-8.243-10.194-14.511-12.005-6.27-1.812-13.077-.932-18.678 2.413l-22.4 13.375c-10.623 6.345-14.557 19.957-8.955 30.99zm15.557-20.255 22.399-13.375c1.361-.813 2.872-1.228 4.405-1.228.806 0 1.618.115 2.418.346 2.323.671 4.206 2.229 5.301 4.386l2.705 5.328c1.095 2.157 1.241 4.596.412 6.868-.828 2.272-2.511 4.043-4.737 4.988l-24.016 10.191c-4.162 1.766-9.023-.009-11.069-4.039l-1.089-2.145c-2.047-4.03-.609-9.003 3.271-11.32z"/><path d="m446.07 81.285c-12.373.182-22.587 10.004-23.252 22.36v.001l-.129 2.4c-.665 12.356 8.435 23.218 20.716 24.727l25.895 3.182c.953.117 1.906.175 2.858.175 5.519 0 10.935-1.942 15.2-5.515 5.002-4.19 8.071-10.33 8.423-16.846l.321-5.967c.351-6.515-2.042-12.949-6.564-17.651-4.523-4.702-10.858-7.358-17.383-7.249zm32.655 17.263c1.677 1.743 2.528 4.033 2.398 6.448l-.321 5.966c-.13 2.416-1.223 4.601-3.077 6.154s-4.198 2.245-6.596 1.951l-25.896-3.182c-4.485-.551-7.81-4.519-7.566-9.034l.129-2.401c.243-4.513 3.975-8.1 8.494-8.167l26.085-.384c2.407-.011 4.674.906 6.35 2.649z"/><path d="m411.097 192.254 20.834 15.703c4.118 3.104 9.149 4.757 14.252 4.757 1.353 0 2.712-.116 4.06-.353 6.426-1.128 12.153-4.911 15.715-10.377l3.262-5.007c3.562-5.467 4.706-12.235 3.141-18.569s-5.731-11.79-11.429-14.969l-22.782-12.71c-10.807-6.028-24.563-2.629-31.316 7.739l-1.312 2.014c-6.757 10.369-4.306 24.325 5.575 31.772zm6.992-23.585 1.312-2.015c2.468-3.787 7.493-5.028 11.439-2.826l22.782 12.71c2.112 1.178 3.596 3.12 4.176 5.468s.173 4.757-1.147 6.783l-3.262 5.007c-1.32 2.026-3.358 3.373-5.741 3.791-2.382.418-4.757-.153-6.688-1.609l-20.834-15.703c-3.61-2.72-4.505-7.817-2.037-11.606z"/><path d="m45.11 50.72 24.015 10.19c2.983 1.266 6.097 1.868 9.171 1.868 8.663 0 16.999-4.779 21.134-12.923l1.089-2.145c5.602-11.033 1.667-24.646-8.957-30.99l-22.399-13.374c-5.602-3.345-12.411-4.225-18.677-2.413-6.268 1.811-11.558 6.187-14.511 12.004l-2.706 5.329c-2.954 5.818-3.365 12.67-1.129 18.799s6.964 11.106 12.97 13.655zm1.534-25.663 2.706-5.328c1.095-2.157 2.978-3.714 5.301-4.386.8-.231 1.612-.346 2.418-.346 1.533 0 3.043.415 4.404 1.228l22.399 13.375c3.881 2.317 5.318 7.29 3.272 11.32l-1.089 2.145c-2.045 4.03-6.907 5.805-11.07 4.038l-24.016-10.191c-2.226-.944-3.909-2.716-4.738-4.988s-.682-4.711.413-6.867z"/><path d="m39.842 134.13c.952 0 1.906-.058 2.858-.175l25.893-3.182c12.282-1.509 21.382-12.37 20.717-24.727l-.129-2.401c-.665-12.356-10.877-22.178-23.251-22.36l-26.086-.384c-6.526-.097-12.859 2.546-17.382 7.25-4.522 4.703-6.915 11.136-6.564 17.651l.321 5.966c.351 6.515 3.42 12.655 8.421 16.845 4.266 3.575 9.683 5.517 15.202 5.517zm-6.568-35.582c1.646-1.711 3.849-2.649 6.217-2.649.043 0 .088 0 .132.001l26.086.384c4.52.067 8.25 3.654 8.493 8.168l.129 2.401c.243 4.514-3.081 8.481-7.568 9.032l-25.893 3.182c-2.4.294-4.744-.398-6.597-1.952-1.854-1.553-2.946-3.738-3.076-6.153l-.321-5.967c-.13-2.414.721-4.704 2.398-6.447z"/><path d="m73.851 150.729-22.784 12.71c-5.697 3.179-9.863 8.635-11.428 14.969s-.42 13.102 3.141 18.568l3.262 5.007c3.561 5.467 9.29 9.25 15.716 10.377 1.348.237 2.705.353 4.059.353 5.102 0 10.134-1.654 14.252-4.757l20.834-15.703c9.882-7.448 12.332-21.403 5.577-31.772l-1.312-2.015c-6.755-10.366-20.509-13.766-31.317-7.737zm18.023 29.547-20.834 15.703c-1.931 1.455-4.306 2.028-6.689 1.609-2.382-.418-4.42-1.765-5.74-3.791l-3.262-5.007c-1.32-2.026-1.728-4.436-1.147-6.783s2.063-4.29 4.174-5.468l22.784-12.71c1.319-.736 2.759-1.088 4.184-1.088 2.836 0 5.612 1.394 7.255 3.915l1.312 2.015c2.468 3.787 1.573 8.884-2.037 11.605z"/></g></g></svg>